<svg viewBox="0 0 136 133" xmlns="http://www.w3.org/2000/svg" fill-rule="evenodd" clip-rule="evenodd" stroke-linejoin="round" stroke-miterlimit="1.414"><path d="M67.867 0C30.388 0 0 30.388 0 67.875 0 97.863 19.446 123.3 46.417 132.28c3.396.62 4.633-1.475 4.633-3.275 0-1.609-.058-5.88-.092-11.542-18.879 4.1-22.862-9.1-22.862-9.1-3.088-7.838-7.538-9.925-7.538-9.925-6.162-4.213.467-4.129.467-4.129 6.813.483 10.396 6.996 10.396 6.996 6.054 10.37 15.887 7.375 19.754 5.641.617-4.387 2.367-7.379 4.308-9.075-15.07-1.712-30.916-7.537-30.916-33.546 0-7.408 2.646-13.466 6.987-18.212-.7-1.717-3.029-8.617.663-17.963 0 0 5.7-1.825 18.666 6.959 5.413-1.504 11.221-2.259 16.992-2.284 5.763.025 11.571.78 16.992 2.284 12.958-8.784 18.646-6.959 18.646-6.959 3.704 9.346 1.375 16.246.675 17.963 4.35 4.746 6.979 10.804 6.979 18.212 0 26.075-15.871 31.813-30.992 33.492 2.438 2.096 4.608 6.238 4.608 12.571 0 9.071-.083 16.392-.083 18.617 0 1.816 1.221 3.929 4.667 3.266 26.95-8.996 46.379-34.416 46.379-64.396C135.746 30.388 105.354 0 67.867 0" fill="#fff"/></svg>